<svg height="297mm" viewBox="0 0 744.09448819 1052.3622047" width="210mm" xmlns="http://www.w3.org/2000/svg" xmlns:xlink="http://www.w3.org/1999/xlink"><linearGradient id="a" gradientUnits="userSpaceOnUse" x1="226.358531" x2="571.82" y1="722.36222" y2="322.36222"><stop offset="0" stop-color="#4e505d"/><stop offset="1" stop-color="#7a859c"/></linearGradient><path d="m189.99854 322.36221h400v400h-400z" fill="none"/><path d="m389.99805 322.36133c-100.41764.00008-181.82174 28.48871-181.82032 63.63086.002 35.14139 81.40484 63.62882 181.82032 63.6289 34.45526.00011 66.67078-3.35382 94.1289-9.17968 4.99101-5.84759 10.56134-11.57886 16.81836-17.06641-.19211.14617.96447-1.02435 1.36719-2.27344.64826-2.01066 1.00781-3.81445 1.00781-3.81445a18.0018 18.0018 0 0 1 18.37696-14.60352 18.0018 18.0018 0 0 1 15.65234 10.45118s1.87813 3.84562 4.03711 8.10546c19.22191-10.09061 30.43297-22.21102 30.43359-35.24804-.072-1.29529-.25692-2.58952-.55469-3.88086-.28656-1.63918-.75436-3.27387-1.40234-4.90039-12.50747-31.41705-89.22492-54.8119-179.86523-54.84961zm113.28125 98.99609c-1.40426 1.18549-2.01133 1.73843-2.22852 1.92578.73596-.64434 1.47352-1.2884 2.22852-1.92578zm-295.10157.8086v54.91992c.30614 35.06319 81.60832 63.43185 181.80079 63.43554 16.74905.00005 32.94989-.80726 48.35156-2.29101 1.6768-11.91883 4.68546-23.74859 9.39062-35.04492 5.12393-12.3017 11.56891-26.80318 20.85352-41.53711-24.09876 3.87195-50.61487 5.97461-78.57617 5.97461-51.9106 0-98.91434-7.19078-134.51172-19.64844-17.79869-6.22883-32.81199-13.67991-44.49414-23.3457-.95934-.79376-1.89316-1.62157-2.81446-2.46289zm363.64258 0c-.9213.84132-1.8551 1.66913-2.81445 2.46289-5.37129 4.44419-11.45497 8.41526-18.18164 12.01953 5.60902 6.61762 13.50003 13.93361 20.99609 23.95117zm-52.1289 32.99023c-19.58366 19.1147-30.28545 41.57725-38.73829 61.87109-2.04956 4.92068-3.63546 10.2817-4.82812 15.91016 9.22601-1.74049 17.94746-3.76386 26.12891-6.01562l.34179-13.7754a18.0018 18.0018 0 0 1 35.95508-.75195l.07617 1.14649c6.42332-3.18495 12.02893-6.58504 16.7168-10.16407-2.94144-6.25409-6.1923-12.19825-9.88086-17.73437-5.53737-8.31097-16.06906-17.14907-25.77148-30.48633zm-311.51368 57.92773v55.08008c.30613 35.06319 81.60831 63.43186 181.80079 63.43555 20.13617.00006 39.48573-1.16045 57.58984-3.27539-.09698-.28085-.2024-.55796-.29688-.83984-6.70671-20.01187-11.36129-45.18051-10.50976-70.98829-14.99098 1.33146-30.64938 2.02735-46.7832 2.02735-51.9106 0-98.91433-7.19078-134.51172-19.64844-17.79869-6.22883-32.81198-13.67991-44.49414-23.3457-.95261-.78819-1.87992-1.6101-2.79493-2.44532zm354.24024 7.40821c-6.65914 4.61502-14.18648 8.68469-22.50586 12.34375l4.57617 68.68359c17.30609-9.74039 27.31191-21.23503 27.3125-33.54883v9.58203c.00567-.10924.01413-.21891.01953-.32812v-12.69141c-.67738-13.45364-3.32356-26.64341-7.83008-39.64453-.51267-1.47905-1.03997-2.93983-1.57226-4.39648zm-60.62891 25.20117c-8.91137 2.2943-18.32472 4.30654-28.17187 6.01562-1.47779 22.84664 2.03739 47.17963 7.78711 64.33594.67476 2.0134 1.62105 4.1468 2.77929 6.35938 5.46784-1.16139 10.72875-2.42877 15.79883-3.7793zm-293.61133 58.46875v54.39258c-.007.0456-.01313.0911-.01953.13672.002 35.14138 81.40487 63.62882 181.82032 63.6289 41.89035-.00003 80.44214-4.97049 111.18554-13.30078-.02323-.47085-.03524-.89304-.0625-1.37695-.2036-3.6151-.7237-7.34152-1.14258-10.15235-8.70716-7.1491-30.64324-26.32842-44.68359-51.92773-20.43947 2.63559-42.38787 4.03906-65.29687 4.03906-51.9106 0-98.91433-7.19077-134.51172-19.64844-17.79869-6.22883-32.81198-13.67991-44.49414-23.3457-.95261-.78818-1.87992-1.61008-2.79493-2.44531zm358.90235 3.97266c-6.23378 4.88478-13.35196 9.19164-21.28125 13.05468l1.65234 24.81055c4.4807-5.85073 8.72288-11.88302 11.23047-17.07031 3.68914-7.63144 6.72128-14.44977 8.39844-20.79492zm-67.5625 29.20507c-1.52648.38124-3.04871.76412-4.60352 1.12891 1.44169 1.85164 2.91882 3.69947 4.43946 5.52148z" fill="url(#a)"/><path d="m189.99854 322.3622h400.00146v.00001 399.99997h-400.00146c-.00001 0-.00001 0-.00001 0v-399.99997c0-.00001 0-.00001.00001-.00001z" fill="none"/><path d="m521.00126 420.66691s-2.11598 11.07175-6.1105 14.44396c-27.45557 23.17812-40.90085 51.82163-50.55312 74.99514-14.65832 35.19221-10.13259 81.42401 0 111.65819 10.43055 31.12322 50.4724 64.64714 51.9408 65.86916l4.31182-174.04194 11.57726 173.75615-15.77713.43015c3.06273 8.35029 3.06704 31.44231 3.06704 31.44231l8.24801 3.14217c.17226-15.0982.18125-28.07615 4.69926-35.35197l1.37295-1.36116s16.18867-13.89672 23.88666-23.33278c6.26647-7.68131 12.90779-16.62771 17.22226-25.55277 4.00128-8.27714 7.84981-16.61519 9.99808-25.55424 3.62869-15.09915 5.63206-30.59103 4.99978-46.10723-.64197-15.75374-3.70155-31.14788-8.88734-46.1087-5.2622-15.18118-11.64558-29.95912-20.55447-43.33039-8.16362-12.25267-20.1346-21.6555-28.33108-33.88622-4.42669-6.60549-11.11028-21.10983-11.11028-21.10983z" fill="#99b000"/></svg>